<svg width="1920" height="575" viewBox="0 0 1920 575" fill="none" xmlns="http://www.w3.org/2000/svg">
<g opacity="0.7">
<path opacity="0.7" d="M1918.76 -119.955C1902.64 -120.31 1886.94 -118.538 1872.48 -115.349C1448.98 -14.3568 1337.84 -47.3121 1239.92 -76.3693C1187.86 -91.9611 1138.28 -106.49 1047.8 -100.111C996.151 -96.5677 949.049 -87.7088 903.187 -79.2042C820.967 -63.9669 743.291 -49.4382 653.22 -67.8648C642.89 -69.9909 632.148 -72.4714 621.406 -74.9519C580.089 -84.1652 537.532 -94.0872 494.149 -90.1893C429.282 -84.5196 381.354 -53.6905 334.666 -23.9245C310.702 -8.3328 285.499 7.61328 258.643 19.6614C183.446 53.6797 137.997 37.7336 85.5244 19.3071C59.9079 10.0938 33.0519 0.880494 0.41144 -3.3718L0.41144 -1.24566C32.6387 3.00663 59.0815 12.2199 85.1112 21.4332C136.344 39.5054 184.272 56.5146 261.122 21.7876C287.978 9.73942 313.181 -6.56101 337.145 -21.7984C383.42 -51.5644 430.934 -82.0391 494.976 -87.7088C537.532 -91.2524 580.089 -81.6847 620.992 -72.4714C631.322 -69.9909 642.064 -67.5104 652.806 -65.3843C743.704 -46.6034 821.793 -61.132 904.014 -76.7237C949.462 -85.2283 996.564 -94.0872 1048.21 -97.6308C1138.28 -104.009 1187.03 -89.4806 1239.09 -74.2432C1337.43 -45.1859 1448.98 -12.2307 1873.72 -113.222C1887.77 -116.412 1903.47 -118.183 1918.76 -117.829L1918.76 -119.955Z" fill="white" fill-opacity="0.1"/>
</g>
<g opacity="0.7">
<path opacity="0.7" d="M1918.76 -94.4413C1894.38 -97.9849 1867.94 -96.5674 1845.22 -90.5434C1827.04 -85.9367 1811.75 -82.3932 1797.29 -79.204C1721.68 -62.1948 1658.88 -54.0446 1603.51 -46.9575C1531.21 -37.7442 1471.3 -32.0745 1420.89 -30.657C1333.71 -27.8222 1284.96 -39.1616 1237.44 -50.501C1229.18 -52.2728 1220.92 -54.399 1212.65 -56.1708C1165.14 -66.4471 1120.1 -74.5973 1050.28 -68.5733C1043.25 -67.8645 1036.23 -67.1558 1028.38 -66.0928C989.955 -61.1318 954.835 -53.6903 920.956 -46.2488C878.812 -37.0355 838.735 -28.1766 794.526 -24.9873C751.143 -21.7981 711.065 -24.633 671.814 -33.1376C660.659 -35.6181 649.503 -38.0985 638.761 -40.9334C599.923 -50.1467 559.845 -59.7143 519.354 -57.9426C456.139 -54.7533 408.625 -27.8222 362.35 -1.95414C339.212 11.1571 315.662 24.6226 290.045 34.899C216.914 64.665 172.705 51.9081 121.885 37.0251C93.3764 28.5206 63.6282 20.016 25.6165 18.2442C21.0717 17.8899 16.1136 17.8899 10.7424 17.8899C7.02389 17.8899 3.71853 18.2442 2.3421e-06 18.5986L2.38542e-06 20.7247C3.71853 20.3704 7.43706 20.016 10.7424 20.016C15.7005 20.016 20.6585 20.016 25.2034 20.3704C62.3886 22.1421 92.1369 30.6467 120.232 39.1513C169.4 53.6799 216.088 67.1455 290.872 36.6708C316.488 26.0401 340.452 12.9289 363.176 -0.182351C409.038 -26.0504 456.139 -52.6272 518.528 -55.8164C558.192 -57.9426 598.27 -48.3749 636.695 -39.1616C647.437 -36.6811 659.006 -33.8463 670.162 -31.3658C709.826 -22.8612 750.316 -20.0263 794.112 -23.2155C838.735 -26.4048 878.399 -35.2637 920.956 -44.477C954.835 -51.9185 989.955 -59.7143 1027.97 -64.321C1035.4 -65.384 1042.43 -66.0928 1049.86 -66.4471C1119.28 -72.4712 1163.9 -64.321 1211 -54.0446C1219.26 -52.2728 1227.53 -50.1467 1235.79 -48.3749C1283.31 -37.0355 1332.89 -25.696 1420.06 -28.5309C1470.88 -30.3027 1530.79 -35.618 1603.1 -44.8313C1658.46 -51.9185 1721.68 -60.0687 1797.29 -77.0778C1811.34 -80.267 1826.62 -83.8106 1845.22 -88.4172C1867.53 -94.0869 1893.97 -95.8587 1917.93 -91.9608L1917.93 -94.4413L1918.76 -94.4413Z" fill="white" fill-opacity="0.1"/>
</g>
<g opacity="0.7">
<path opacity="0.7" d="M1918.76 -64.6756C1888.6 -76.3694 1849.35 -74.5976 1817.95 -66.093C1799.77 -61.132 1785.31 -57.5884 1771.67 -54.7536C1711.35 -41.6423 1662.18 -37.0357 1614.25 -32.429C1604.34 -31.366 1594.01 -30.6573 1584.09 -29.5942C1506.83 -21.7983 1451.88 -17.1917 1406.84 -14.3568C1325.45 -9.75018 1278.76 -17.1917 1234.14 -24.9875C1225.87 -26.405 1217.61 -27.8224 1209.35 -28.8855C1205.63 -29.5942 1201.91 -29.9486 1197.78 -30.6573C1158.94 -36.6813 1114.73 -43.4141 1051.93 -37.3901C1045.32 -36.6813 1038.3 -35.9726 1030.86 -34.9096C995.739 -29.5942 964.752 -21.444 934.59 -13.6481C893.686 -3.0174 854.848 6.90461 808.16 10.0938C766.43 12.9287 727.592 9.73947 689.167 1.23488C677.599 -1.24562 665.617 -4.43484 654.048 -7.26969C617.689 -16.483 580.504 -26.0506 542.905 -25.6963C481.343 -24.9876 435.894 -3.0174 387.553 20.3702C366.069 30.6466 343.757 41.6316 320.207 50.1362C249.141 76.0043 206.585 66.4366 157.418 55.0972C129.735 48.7188 101.64 42.3403 65.6941 41.6316C61.1492 41.6316 56.6044 41.6316 51.6463 41.6316C34.2932 42.3403 16.5269 46.2383 0.413272 52.6167L0.413272 54.7428C16.5269 48.01 34.2932 44.1121 52.0595 43.7578C57.0175 43.7578 61.5624 43.4034 66.1073 43.7578C101.64 44.4665 129.735 50.8449 157.418 57.2233C204.932 68.2084 249.968 78.4848 322.273 52.2624C346.236 43.4034 368.548 32.7727 390.032 22.4963C437.96 -0.536903 482.996 -22.5071 543.732 -23.2158C580.504 -23.5701 617.689 -14.3568 654.048 -5.14354C665.617 -2.30869 677.599 0.880521 689.167 3.36103C727.592 12.22 766.843 15.0548 809.4 12.22C856.088 9.3851 894.926 -0.891257 936.243 -11.522C966.404 -19.3178 997.392 -27.1137 1032.1 -32.4291C1039.54 -33.4921 1046.15 -34.5552 1052.76 -34.9096C1114.73 -40.9336 1158.94 -34.2008 1197.37 -28.1768C1201.08 -27.468 1205.22 -27.1137 1208.93 -26.405C1217.2 -24.9875 1225.87 -23.5701 1233.73 -22.507C1278.76 -15.0655 1325.45 -7.26968 1407.26 -11.8763C1452.71 -14.3568 1507.24 -19.3178 1584.51 -27.1137C1594.42 -28.1768 1604.34 -28.8855 1614.25 -29.9485C1662.18 -34.5552 1711.35 -39.1618 1772.09 -52.2731C1785.72 -55.1079 1800.18 -59.0058 1818.36 -63.9669C1849.35 -72.4714 1888.6 -73.8889 1918.35 -62.1951L1918.35 -64.6756L1918.76 -64.6756Z" fill="white" fill-opacity="0.1"/>
</g>
<g opacity="0.7">
<path opacity="0.7" d="M1918.76 -24.6334C1917.11 -26.4051 1915.46 -28.1769 1913.39 -29.5944C1881.16 -55.8168 1828.69 -52.9819 1790.26 -41.6425C1772.5 -36.6815 1758.86 -33.1379 1745.64 -30.3031C1691.52 -18.6093 1647.72 -16.4832 1605.16 -14.357C1591.53 -13.6483 1578.31 -12.9396 1565.09 -11.8765C1504.76 -7.62424 1455.18 -3.37195 1411.39 0.525974L1393.62 1.94341C1317.6 8.32183 1273.8 4.4239 1231.25 0.525971C1222.98 -0.182743 1214.72 -0.891449 1206.46 -1.60017C1198.19 -2.30888 1189.52 -3.0176 1180.43 -4.08067C1145.72 -7.62424 1106.06 -11.8765 1054.41 -5.85245C1047.8 -5.14374 1041.19 -4.08067 1034.16 -3.0176C1001.94 2.65211 974.254 11.1567 947.398 19.3069C908.147 31.355 870.962 42.3401 823.034 45.175C782.957 47.6555 745.358 44.4662 707.76 35.6073C695.365 32.7725 682.557 29.2289 670.575 26.0397C637.108 16.8264 602.402 7.61311 567.695 6.55003C506.959 4.77825 461.098 23.2048 412.343 42.6945C392.924 50.4903 372.679 58.6405 351.194 65.3733C282.195 87.3434 239.225 80.6106 193.777 73.1692C167.334 68.9169 140.065 64.6646 105.771 65.0189C101.64 65.0189 97.0949 65.3733 92.1369 65.3733C57.4306 67.1451 21.898 80.965 3.07821e-06 101.163L3.14319e-06 104.353C21.0717 83.4455 57.4306 68.9169 92.1369 67.1451C97.0949 66.7907 101.64 66.7907 105.771 66.7907C139.651 66.4364 166.921 70.6887 192.95 74.9409C238.812 82.3824 282.195 89.1152 352.021 67.1451C373.505 60.4123 393.751 52.2621 413.17 44.4662C461.511 25.331 506.959 6.90438 567.282 8.67617C601.162 9.73924 635.868 18.9525 668.922 28.1658C681.317 31.355 693.712 34.8986 706.52 37.7334C744.119 46.5924 782.13 49.7816 822.621 47.3011C871.375 44.4662 908.56 33.1268 948.225 21.0787C975.081 12.9285 1002.76 4.4239 1034.58 -1.24581C1041.6 -2.66325 1048.21 -3.37196 1054.41 -4.08067C1105.64 -10.1047 1144.89 -5.85245 1179.6 -2.30888C1188.69 -1.24581 1197.37 -0.537095 1205.63 0.171619C1213.89 0.880333 1222.16 1.58904 1230.42 2.29776C1272.98 6.19569 1317.19 10.0936 1393.62 3.71519L1411.39 2.29776C1455.18 -1.60017 1504.76 -5.85245 1565.09 -10.1047C1578.31 -11.1678 1591.53 -11.8765 1605.16 -12.2309C1647.72 -14.357 1691.93 -16.4832 1746.47 -28.1769C1759.69 -31.0118 1773.32 -34.5554 1791.09 -39.8707C1828.69 -50.8558 1879.92 -53.6906 1910.91 -28.1769C1913.8 -26.0508 1916.28 -23.5703 1918.35 -21.0898L1918.35 -24.6334L1918.76 -24.6334Z" fill="white" fill-opacity="0.1"/>
</g>
<g opacity="0.7">
<path opacity="0.7" d="M1918.76 41.2774C1917.52 39.5056 1916.28 37.7338 1915.04 35.962C1911.74 31.3554 1909.26 26.04 1906.37 21.4334C1900.58 10.4483 1894.38 -0.891085 1881.99 -9.75001C1842.74 -37.7442 1785.72 -24.2786 1763 -17.1915C1746.06 -11.8762 1732.83 -8.33258 1720.03 -5.85209C1670.03 4.77862 1629.96 4.77862 1591.12 4.77862C1576.24 4.77862 1561.37 4.77862 1546.08 5.48733C1487.82 7.96783 1433.29 12.2201 1379.99 18.2442C1308.51 26.3944 1266.37 26.04 1225.88 25.6857C1218.44 25.6857 1211 25.6857 1203.15 25.6857C1191.58 25.6857 1178.77 24.977 1165.55 23.9139C1134.56 21.7877 1099.45 19.6616 1056.89 25.3313C1050.69 26.04 1044.49 27.1031 1037.47 28.5205C1007.72 34.899 982.931 43.7579 958.967 52.2624C921.782 65.3737 887.076 77.7761 837.495 80.611C799.071 82.7371 762.712 79.1936 726.353 70.3346C713.131 67.1454 699.497 63.2475 686.275 59.3496C655.701 50.4907 623.887 41.2774 592.486 38.7969C531.337 34.1902 483.822 49.0732 433.828 65.0193C417.302 70.3346 400.362 75.65 382.182 80.611C315.249 98.6832 273.932 95.1396 230.136 91.2417C204.932 89.1156 178.903 86.9894 146.262 88.4068C141.717 88.7612 137.172 89.1155 133.041 89.1155C97.9214 91.9504 61.9756 105.77 39.6644 125.614C26.443 137.308 21.4849 148.293 16.5269 158.924C12.8084 167.428 9.08984 175.224 1.65278 183.02C1.23961 183.375 0.826443 183.729 0.413273 184.083L0.413273 187.627C1.65278 186.564 2.89229 185.501 4.1318 184.083C11.5689 175.933 15.2874 168.137 19.4191 159.633C24.3771 149.002 29.3352 138.371 42.1434 127.032C63.6283 107.896 99.574 94.0766 133.867 91.2417C137.586 90.8873 142.544 90.533 146.675 90.533C178.903 89.1156 204.932 91.2417 230.136 93.3678C274.345 97.2658 316.075 100.809 383.422 82.3828C401.601 77.4218 418.541 72.1064 435.068 66.7911C485.061 51.1994 532.163 36.3164 592.486 40.923C623.473 43.4035 654.874 52.2624 685.449 61.1214C698.67 65.0193 712.305 68.9172 725.526 72.1064C762.298 81.3197 799.071 84.5089 837.909 82.7371C887.902 80.2566 923.022 67.4998 960.207 54.3886C984.171 45.884 1008.96 37.0251 1038.3 30.6467C1044.91 29.2292 1051.1 28.1662 1057.3 27.4575C1099.45 21.7877 1134.15 24.2682 1165.14 26.04C1178.77 26.7487 1191.17 27.8118 1203.15 27.8118C1210.59 27.8118 1218.44 27.8118 1225.88 27.8118C1266.37 28.1662 1308.51 28.5205 1380.4 20.3703C1433.7 14.3463 1488.24 10.094 1546.49 7.61347C1561.78 6.90476 1576.24 6.90476 1591.53 6.90476C1630.78 6.90476 1671.27 6.90476 1721.27 -4.0803C1734.07 -6.91516 1747.3 -10.4587 1764.24 -15.7741C1786.55 -22.8612 1842.32 -35.9724 1880.34 -8.68693C1892.32 -0.182368 1898.1 10.4483 1903.89 21.7878C1906.37 26.7488 1909.26 31.7098 1912.56 36.6708C1914.63 39.5056 1916.7 42.3405 1918.76 44.821L1918.76 41.2774Z" fill="white" fill-opacity="0.1"/>
</g>
<g opacity="0.7">
<path opacity="0.7" d="M1918.76 80.2567C1905.95 71.7521 1895.21 62.1845 1886.95 51.5538C1883.64 47.3015 1880.75 43.0492 1877.44 38.7969C1870.01 28.1662 1863.4 18.2442 1850.59 10.094C1822.08 -7.62386 1783.65 -8.68694 1735.31 7.61348C1719.61 12.9288 1706.39 16.4724 1694 18.9529C1641.52 29.938 1602.27 27.4575 1560.54 24.977C1549.39 24.2683 1537.82 23.5595 1526.25 23.2052C1464.69 21.079 1413.04 27.8118 1365.53 34.5446C1293.22 45.1753 1253.14 48.3645 1210.59 51.9081L1199.02 52.9712C1184.97 54.0342 1169.27 53.6799 1152.33 52.9712C1124.65 52.2624 1093.25 51.1994 1058.13 56.5147C1051.93 57.5778 1046.15 58.6409 1039.54 60.0583C1011.85 66.7911 989.542 76.3587 968.057 85.2177C933.764 99.7463 901.123 113.212 850.717 115.692C813.945 117.464 778.825 113.566 743.293 104.353C728.832 100.455 713.957 95.8484 699.91 91.5961C672.227 83.0915 643.719 74.2326 616.036 70.689C552.408 62.5388 504.067 73.8782 447.876 86.9894C436.307 89.8243 424.325 92.6591 411.93 95.1396C348.715 109.668 309.051 109.314 266.908 109.314C242.531 109.314 217.741 108.96 186.34 111.794C182.208 112.149 177.663 112.503 173.945 113.212C140.478 116.755 105.358 129.867 82.2209 147.23C68.9994 157.152 62.3887 166.72 56.1912 175.933C51.2332 183.375 46.2751 190.816 38.0117 197.549C31.401 203.219 23.9639 207.825 14.8742 212.432C10.3293 214.558 5.37131 216.684 0.413274 218.456L0.413274 220.582C6.19765 218.81 11.5689 216.684 16.5269 214.204C25.6166 209.597 33.4669 204.636 40.0776 198.966C48.341 191.879 53.299 184.438 58.6702 176.996C64.8678 167.783 71.4785 158.57 84.2867 148.648C107.011 131.638 141.304 118.882 174.358 115.338C178.076 114.984 182.621 114.275 186.753 114.275C217.741 111.794 242.944 111.794 266.908 111.794C309.051 111.794 349.129 112.149 413.583 97.9745C425.978 95.1396 437.96 92.3048 449.529 89.8243C505.307 76.7131 553.648 65.3737 616.449 73.5239C644.132 77.0674 670.988 85.572 699.91 94.4309C713.957 98.6832 728.832 103.29 743.706 107.188C779.238 116.401 814.771 120.299 852.369 118.527C903.602 116.401 936.243 102.581 970.949 88.0525C992.434 79.1936 1014.33 69.6259 1042.01 62.8932C1048.21 61.4757 1054.41 60.0583 1060.19 59.3496C1095.31 54.0342 1126.3 55.0973 1153.57 55.806C1170.51 56.5147 1186.62 56.8691 1200.67 55.806L1212.24 54.743C1254.8 51.1994 1294.46 48.0102 1367.18 37.3795C1414.69 30.2923 1465.93 23.9139 1527.49 26.04C1539.06 26.3944 1550.63 27.1031 1561.78 27.8118C1603.51 30.2923 1643.18 32.7728 1696.06 21.4334C1708.46 18.9529 1721.68 15.055 1737.79 9.73963C1784.89 -5.85207 1822.49 -5.14337 1849.76 12.2201C1862.16 20.016 1868.77 29.938 1876.2 40.5687C1879.1 44.821 1881.99 49.4276 1885.71 53.6799C1894.8 64.665 1906.37 74.9413 1920 84.1546L1920 80.2567L1918.76 80.2567Z" fill="white" fill-opacity="0.1"/>
</g>
<g opacity="0.7">
<path opacity="0.7" d="M1918.76 107.896C1894.8 97.2658 1874.55 83.4458 1858.85 67.1454C1855.55 63.6018 1852.24 59.7039 1848.93 56.1603C1840.67 46.2383 1832.41 37.025 1819.19 29.5835C1782 9.38516 1740.27 20.0159 1708.04 31.7097C1693.17 37.025 1680.77 40.5686 1668.38 43.0491C1624.17 52.2624 1589.46 48.3645 1556.41 44.4665C1540.71 42.6948 1524.6 40.923 1507.24 40.5686C1449.4 39.1512 1398.58 42.3404 1351.89 50.845C1314.29 57.5777 1286.61 62.8931 1261.82 67.8541C1238.27 72.4608 1218.02 76.3587 1196.13 80.2566C1180.84 83.0915 1163.07 82.7371 1142.83 82.7371C1118.04 82.7371 1090.36 82.7371 1060.61 87.6981C1054.82 88.7612 1049.04 90.1786 1042.84 91.596C1017.22 99.0375 996.979 108.96 977.973 118.527C946.572 134.119 916.824 149.002 865.178 150.774C830.058 152.191 796.178 148.293 761.885 138.726C745.772 134.119 729.658 128.804 713.957 123.843C688.754 115.338 664.79 107.542 640.413 102.935C569.761 89.4699 515.223 98.3288 446.637 109.668L442.505 110.377C383.422 120.653 346.236 123.488 306.985 127.032C282.608 129.158 257.818 131.284 226.417 134.828C223.112 135.182 219.393 135.891 216.088 136.245L214.435 136.599C181.795 141.206 148.328 152.9 124.777 168.137C111.969 176.642 104.119 184.792 96.2686 192.588C89.6579 199.321 83.4603 205.699 74.3706 212.078C67.3467 217.039 59.4965 221.291 50.4067 224.834C35.5326 230.858 17.7663 235.111 4.49084e-06 238.654L4.53416e-06 240.78C18.1795 236.883 36.3589 232.985 51.6462 226.606C60.736 222.708 68.5862 218.456 76.0233 213.495C85.5261 207.117 91.7237 200.738 98.3344 193.651C105.771 185.855 113.622 177.705 126.43 169.555C149.567 154.672 182.621 142.978 214.848 138.371L216.501 138.017C220.22 137.662 223.525 136.954 226.83 136.599C257.818 132.701 283.021 130.575 306.985 128.804C346.649 125.614 383.835 122.425 443.744 112.503L447.876 111.794C516.049 100.455 570.174 91.596 640.413 105.062C664.377 109.668 688.341 117.464 713.544 125.969C729.245 131.284 745.358 136.599 761.472 140.852C796.178 150.419 830.471 154.317 866.004 152.9C918.477 150.774 948.225 135.891 980.039 120.299C999.045 110.731 1018.88 101.164 1044.49 93.7222C1050.28 91.9504 1056.06 90.8873 1061.85 89.8243C1091.18 84.8633 1118.86 84.8633 1143.24 84.8633C1163.07 84.8633 1181.67 84.8633 1197.37 82.3828C1219.68 78.4848 1239.92 74.5869 1263.06 69.9803C1287.85 65.3736 1315.53 59.7039 1353.13 52.9711C1399.41 44.4665 1450.23 41.2773 1507.66 42.6947C1524.6 43.0491 1540.71 44.8209 1556.41 46.5927C1589.88 50.4906 1624.58 54.0342 1669.62 45.1753C1681.6 42.6948 1694.41 39.1512 1709.7 33.4815C1741.51 22.142 1782.41 11.5113 1817.95 31.001C1830.76 38.0881 1838.61 47.3014 1846.87 56.869C1850.17 60.4126 1853.07 64.3106 1856.79 68.2085C1872.9 84.8633 1893.97 99.0376 1918.76 110.023L1918.76 107.896Z" fill="white" fill-opacity="0.1"/>
</g>
<g opacity="0.7">
<path opacity="0.7" d="M1918.76 129.866C1885.71 120.299 1855.13 103.998 1831.17 83.0913C1827.86 79.9021 1824.56 77.0672 1821.25 73.878C1811.34 64.6647 1802.25 56.1601 1788.2 49.4273C1751.01 31.7095 1714.66 43.0489 1680.78 56.5145C1666.31 62.1842 1654.75 65.7278 1642.76 67.8539C1600.62 76.3585 1570.46 71.0431 1537.82 65.3734C1522.12 62.5385 1506 59.7037 1488.24 58.6406C1431.63 55.097 1382.88 57.9319 1338.67 67.8539C1293.22 77.7759 1263.47 86.9892 1234.14 95.8481C1220.5 100.1 1207.28 103.998 1193.23 107.896C1176.71 112.503 1156.46 112.857 1134.98 113.566C1113.08 113.92 1087.88 114.629 1062.67 119.59C1057.3 120.653 1051.52 122.071 1045.73 123.842C1021.77 131.638 1004 142.269 986.65 152.191C958.141 168.846 931.698 184.792 879.225 186.564C845.346 187.627 813.118 183.374 779.652 173.807C761.472 168.491 743.706 162.113 726.353 155.735C704.868 147.939 685.036 140.852 664.79 135.536C595.791 117.818 540.426 118.881 473.08 125.968C406.972 133.056 368.961 139.788 325.165 147.939C306.985 151.128 287.979 154.671 265.668 158.215C263.189 158.569 260.71 158.924 258.231 159.632L254.513 160.341C223.112 166.011 190.884 176.642 166.507 189.753C154.112 196.486 145.023 203.218 136.346 209.597C128.083 215.621 120.646 221.291 110.316 226.96C102.466 231.213 94.6159 234.756 85.9393 237.591C68.173 243.97 47.1014 247.513 26.856 251.411C17.7663 253.183 8.67657 254.6 4.40887e-06 256.726L4.45219e-06 258.853C8.67657 257.081 18.1795 255.309 27.6824 253.537C48.3409 249.994 69.4125 246.096 87.592 239.717C96.2686 236.528 104.532 232.984 112.382 228.732C123.125 223.062 130.562 217.393 138.825 211.014C147.088 204.636 156.178 198.257 168.573 191.525C192.537 178.768 224.351 168.137 255.339 162.467L259.057 161.759C261.537 161.404 264.016 160.696 266.495 160.341C288.806 156.798 307.812 153.254 325.991 150.065C369.787 142.269 407.799 135.182 473.906 128.095C540.426 121.008 595.791 119.944 664.377 137.662C684.622 142.978 704.455 150.065 725.94 157.861C743.293 164.239 761.472 170.618 779.652 175.933C813.531 185.855 846.172 190.107 880.465 189.044C933.764 187.272 960.62 171.326 989.542 154.317C1006.48 144.395 1023.83 133.764 1047.8 125.969C1053.17 124.197 1058.95 122.779 1064.33 121.716C1089.12 116.755 1113.91 116.047 1135.8 115.692C1157.7 115.338 1177.95 114.629 1194.89 110.022C1208.94 106.124 1222.16 102.227 1235.79 97.9743C1264.71 89.1153 1294.46 79.9021 1339.91 69.9801C1383.71 60.4124 1432.46 57.5776 1488.65 61.1211C1506 62.1842 1522.12 65.0191 1537.82 67.8539C1569.22 73.1693 1601.45 79.1934 1644 70.3344C1655.98 67.8539 1667.97 64.3103 1682.43 58.6406C1715.48 45.8838 1751.01 34.5443 1786.96 51.5535C1800.59 57.9319 1809.68 66.4365 1819.19 75.6498C1822.49 78.839 1825.8 81.6739 1829.1 84.8631C1853.48 106.125 1885.29 122.779 1919.17 132.347L1919.17 129.866L1918.76 129.866Z" fill="white" fill-opacity="0.1"/>
</g>
<g opacity="0.7">
<path opacity="0.7" d="M1918.76 146.521C1915.04 146.167 1911.74 145.458 1908.02 144.749C1871.25 138.017 1836.13 122.425 1803.07 98.683C1799.77 96.2025 1796.88 94.0764 1793.57 91.5959C1782.41 83.0913 1771.67 74.9411 1756.8 68.917C1717.96 53.3253 1685.32 67.1453 1653.51 80.6108C1639.87 86.2805 1628.72 89.8241 1617.56 91.9503C1577.9 99.7461 1549.39 92.659 1519.64 85.2175C1503.94 81.3195 1487.82 77.4216 1469.65 75.6498C1413.87 69.9801 1368.01 72.4606 1325.45 83.4457C1283.31 94.4308 1254.8 106.833 1227.94 118.881C1215.55 124.551 1203.56 129.512 1190.76 134.473C1173.82 140.852 1152.33 141.915 1129.61 142.978C1108.95 144.041 1087.46 145.104 1065.98 150.065C1060.61 151.128 1055.24 152.9 1049.86 154.671C1027.14 163.176 1011.85 174.161 996.566 184.792C971.362 202.51 947.812 219.519 894.926 220.936C862.699 221.645 831.711 217.393 799.071 207.471C778.412 201.092 757.754 192.942 738.335 185.146C721.808 178.413 706.107 172.389 690.407 167.074C624.3 145.104 570.588 137.308 504.894 140.497C444.571 143.332 407.799 153.608 368.961 164.948C349.955 170.263 330.123 175.933 306.572 180.894C304.919 181.248 303.267 181.603 301.201 181.957C299.548 182.311 297.482 182.666 295.417 183.02C264.429 189.753 233.854 199.32 209.477 209.951C197.908 214.912 188.406 219.873 179.316 224.834C168.987 230.15 159.07 235.465 147.089 240.426C138.412 243.969 130.149 246.804 121.885 249.285C104.119 254.246 83.4604 257.789 64.0414 260.624C51.2332 262.75 39.2512 264.522 28.0957 267.003C18.1796 269.129 9.08984 270.901 0.413273 273.027L0.413273 275.153C9.50301 273.381 19.0059 271.255 28.922 269.129C40.0776 266.648 52.0595 264.877 64.8678 262.75C84.6999 259.561 105.358 256.372 123.125 251.057C131.801 248.576 140.065 245.741 148.741 242.198C161.136 237.237 171.052 231.921 181.382 226.606C190.471 221.999 199.561 217.038 211.13 211.723C235.507 201.092 265.668 191.525 296.243 185.146C298.309 184.792 299.961 184.437 302.027 184.083C303.68 183.729 305.746 183.374 307.399 183.02C330.949 178.059 350.781 172.389 369.787 166.72C408.625 155.735 444.984 145.458 504.894 142.623C569.761 139.434 623.06 147.23 689.167 169.2C704.868 174.515 720.155 180.54 736.682 187.272C756.514 195.068 776.759 203.218 797.831 209.597C830.471 219.519 862.286 224.125 894.926 223.417C949.051 221.999 973.015 204.99 998.632 186.918C1013.51 176.287 1028.79 165.302 1051.1 157.152C1056.06 155.38 1061.43 153.608 1066.8 152.545C1087.88 147.584 1109.36 146.876 1129.61 145.813C1152.74 144.749 1174.64 143.686 1192 136.954C1204.8 131.993 1216.79 126.677 1229.18 121.362C1256.45 109.314 1284.13 96.9113 1326.28 85.9262C1368.42 74.9411 1413.87 72.4606 1469.23 78.1303C1487 79.9021 1503.11 83.8 1518.4 87.698C1548.56 95.1395 1577.48 102.227 1617.97 94.4308C1629.54 92.3046 1641.11 88.4067 1654.75 82.737C1687.39 68.917 1717.96 56.1602 1755.15 71.0432C1769.61 76.7129 1779.94 84.8631 1791.09 93.3677C1794.4 95.8482 1797.29 97.9743 1800.59 100.455C1834.06 124.551 1869.59 140.143 1906.78 146.876C1910.5 147.584 1914.22 148.293 1918.35 148.647L1918.35 146.521L1918.76 146.521Z" fill="white" fill-opacity="0.1"/>
</g>
<g opacity="0.7">
<path opacity="0.7" d="M1918.76 158.57C1905.95 158.215 1892.73 157.506 1879.92 155.38C1836.95 149.002 1801.01 130.221 1774.98 114.629C1772.5 113.212 1769.61 111.44 1767.13 110.023C1753.91 101.872 1741.51 94.4308 1725.4 89.1155C1688.21 76.713 1661.36 89.1155 1633.26 102.227C1630.78 103.29 1628.72 104.353 1626.24 105.416C1613.43 111.086 1602.69 114.629 1591.94 116.755C1553.93 123.842 1527.9 115.338 1500.22 106.479C1484.93 101.518 1469.23 96.2026 1450.64 93.7221C1396.51 85.9263 1352.31 88.0524 1311.81 100.455C1273.8 112.149 1248.19 127.386 1223.4 142.269C1211.41 149.356 1200.26 156.089 1187.86 162.467C1170.92 170.972 1148.61 172.744 1124.65 174.516C1106.06 175.933 1086.64 177.35 1068.46 181.957C1063.09 183.374 1058.13 185.146 1053.17 187.272C1032.1 196.486 1018.46 208.179 1005.24 219.519C983.344 238.3 962.686 256.372 909.387 257.081C878.813 257.435 848.651 252.828 817.663 242.552C792.873 234.402 768.909 223.771 746.185 213.495C735.443 208.534 725.526 204.282 715.197 200.029C652.809 173.807 601.162 157.506 535.882 156.443C478.451 155.38 443.332 169.555 406.146 184.083C387.967 191.525 368.961 198.966 347.063 204.99L344.997 205.699C342.518 206.408 339.626 207.116 336.734 207.825C302.854 216.684 275.585 224.48 252.86 232.276C243.77 235.465 235.507 238.3 227.657 241.489C213.609 246.804 200.388 251.765 184.687 256.018C175.184 258.853 166.921 260.979 158.657 262.75C140.891 266.648 121.472 269.129 102.466 271.964C90.0713 273.736 78.0894 275.153 66.5206 277.279C44.6226 280.823 25.6168 284.366 8.26366 287.91C5.78464 288.264 3.30562 288.973 0.826603 289.327L0.826603 291.453C3.71879 290.745 6.19781 290.39 9.09 289.682C26.4431 286.138 45.4489 282.594 67.347 279.051C78.9157 277.279 90.4845 275.507 102.88 273.736C121.885 271.255 141.304 268.775 159.071 264.522C167.747 262.75 176.011 260.624 185.514 257.789C201.214 253.183 214.435 248.222 228.896 243.261C236.747 240.426 245.01 237.237 254.1 234.048C276.824 226.252 304.093 218.456 337.973 209.597C340.865 208.888 343.344 208.179 346.237 207.471L348.302 206.762C370.614 200.738 389.619 193.296 407.799 185.855C444.571 171.326 479.277 157.152 535.882 158.215C600.336 159.278 651.569 175.579 713.545 201.801C723.461 206.053 733.79 210.66 744.532 215.267C767.67 225.543 791.634 236.174 816.424 244.678C848.238 254.955 878.813 259.916 909.387 259.207C963.926 258.144 984.997 240.072 1007.31 220.936C1020.12 209.597 1033.75 198.257 1054.41 189.399C1058.95 187.272 1063.91 185.855 1068.87 184.438C1087.05 179.831 1106.06 178.413 1124.65 176.996C1149.03 175.224 1171.75 173.452 1189.1 164.594C1201.5 158.215 1213.07 151.482 1225.05 144.395C1249.84 129.512 1275.04 114.275 1313.05 102.581C1353.13 90.1785 1396.51 88.4068 1450.23 96.2026C1468.41 98.6831 1484.11 103.998 1499.39 108.959C1527.49 118.173 1553.93 126.677 1592.77 119.59C1603.93 117.464 1615.08 113.92 1627.89 107.896C1630.37 106.833 1632.85 105.77 1634.91 104.707C1662.6 91.9503 1688.63 79.5478 1724.57 91.596C1740.27 96.9113 1752.67 104.353 1765.89 112.149C1768.37 113.566 1771.26 115.338 1773.74 116.755C1800.18 132.701 1836.13 151.482 1879.92 157.861C1892.73 159.633 1905.95 160.696 1919.17 161.05L1919.17 158.57L1918.76 158.57Z" fill="white" fill-opacity="0.1"/>
</g>
<g opacity="0.7">
<path opacity="0.7" d="M1918.76 167.428C1912.15 167.428 1905.95 167.428 1899.76 167.428C1884.05 167.428 1867.53 167.783 1851.83 166.011C1814.23 161.759 1782 147.23 1746.88 130.221L1744.4 128.803C1727.88 121.008 1712.59 113.566 1694 108.605C1657.64 99.0374 1634.5 111.086 1610.12 123.842C1606.4 125.969 1602.27 127.74 1598.55 129.867C1586.57 135.891 1576.24 139.434 1565.91 141.206C1529.97 147.939 1506 138.017 1480.39 127.386C1465.51 121.008 1449.81 114.629 1431.22 111.086C1378.33 100.809 1336.19 102.581 1297.77 116.401C1263.89 128.449 1240.75 146.876 1218.44 164.239C1207.7 172.744 1196.13 181.603 1184.14 189.753C1167.62 200.384 1144.48 202.864 1120.1 205.345C1103.16 207.116 1085.81 208.888 1070.11 213.495C1065.15 214.912 1060.19 216.684 1055.65 219.165C1035.82 228.732 1024.25 241.489 1013.09 253.183C994.5 273.027 977.147 291.808 923.435 292.516C894.513 292.871 865.591 287.91 835.43 277.279C804.029 266.294 775.107 251.057 747.424 236.528L739.574 232.276C685.449 203.927 633.803 177.35 566.456 171.326C511.091 166.72 477.625 184.083 442.505 202.864C425.565 211.723 407.799 221.291 387.14 228.023C383.835 229.087 380.53 230.15 377.224 231.213C351.608 239.009 323.099 246.096 295.004 253.183C269.8 259.561 246.663 265.231 220.633 270.192C210.717 271.964 202.04 273.381 193.777 274.799C176.011 277.633 157.831 279.405 140.065 281.531C127.67 282.949 115.688 284.012 104.119 285.784C81.3947 288.619 63.2152 291.453 47.1016 294.288C32.6407 296.769 16.5271 299.604 0.826603 303.147L0.826603 305.273C16.9402 301.375 33.0538 298.541 47.928 296.06C64.0416 293.225 81.8079 290.745 104.945 287.555C116.514 286.138 128.496 284.721 140.891 283.303C158.657 281.531 177.25 279.405 194.603 276.57C202.867 275.153 211.956 273.736 221.459 271.964C247.489 267.003 270.626 261.333 295.83 254.955C323.512 247.867 352.434 240.78 378.051 232.984C381.356 231.921 384.661 230.858 387.967 229.795C409.038 223.062 426.805 213.495 443.745 204.282C478.864 185.855 511.918 168.491 566.043 173.098C632.563 178.768 683.796 205.345 737.508 233.693L745.359 237.945C773.454 252.828 802.376 268.066 834.19 279.051C864.765 289.682 894.1 294.643 923.435 294.288C978.8 293.934 996.566 274.444 1015.57 254.246C1026.73 242.552 1037.88 230.15 1057.3 220.582C1061.43 218.456 1065.98 216.684 1070.94 215.267C1086.64 210.66 1103.58 208.888 1120.52 207.471C1145.31 204.99 1168.86 202.864 1186.21 191.525C1198.61 183.729 1209.76 174.516 1220.92 166.011C1243.23 148.647 1265.95 130.575 1299.42 118.527C1337.02 105.061 1378.75 103.29 1430.81 113.212C1449.4 116.755 1464.69 123.134 1479.15 129.158C1505.18 139.789 1529.55 150.065 1566.74 143.332C1577.9 141.206 1588.22 137.662 1600.62 131.638C1604.75 129.512 1608.47 127.74 1612.19 125.614C1635.74 113.212 1658.46 101.164 1693.17 110.731C1711.35 115.692 1726.64 122.779 1742.75 130.93L1745.23 132.347C1780.76 149.356 1813.4 163.885 1851.41 168.491C1867.53 170.263 1883.64 170.263 1899.76 169.909C1905.95 169.909 1912.56 169.909 1918.76 169.909L1918.76 167.428Z" fill="white" fill-opacity="0.1"/>
</g>
<g opacity="0.7">
<path opacity="0.7" d="M1918.76 175.933C1902.23 174.161 1885.29 175.224 1869.18 175.933C1854.31 176.642 1839.02 177.35 1824.14 176.287C1791.09 173.807 1761.34 162.113 1732.42 150.774C1710.11 142.269 1687.39 133.056 1663.01 128.095C1627.06 120.653 1606.82 133.056 1585.75 145.813C1572.52 153.963 1558.48 162.467 1540.3 165.657C1506 171.681 1484.11 160.341 1460.56 148.293C1446.09 140.852 1431.22 133.056 1412.21 128.449C1360.16 115.692 1320.9 117.11 1284.13 132.701C1254.38 145.104 1234.14 165.657 1214.72 185.855C1204.39 196.486 1193.23 207.471 1181.25 217.038C1165.14 230.15 1140.76 232.985 1117.21 236.174C1096.55 238.654 1075.48 241.489 1058.95 250.702C1040.36 260.979 1030.86 274.09 1021.36 286.847C1005.24 308.463 991.608 327.598 937.483 327.598L937.069 327.598C870.962 327.598 812.292 295.706 763.538 264.522C759.819 262.042 756.101 259.916 752.796 257.435C706.107 227.315 657.766 196.131 597.031 186.564C544.145 178.059 511.918 199.321 478.451 221.999C462.337 232.63 445.81 243.615 426.805 251.411C364.003 276.57 270.213 284.366 187.579 291.099C151.22 293.934 116.514 296.769 85.9394 301.021C53.299 305.273 23.964 310.234 0.413273 320.511L0.413273 322.991C23.964 312.006 53.7122 307.399 86.3526 302.793C116.927 298.895 151.22 296.06 187.579 292.871C270.626 286.138 364.416 278.342 427.631 253.183C447.05 245.387 463.577 234.402 479.69 223.417C512.744 201.092 544.145 180.185 595.791 188.336C656.114 197.903 704.042 228.732 750.317 258.853C754.035 261.333 757.754 263.459 761.059 265.94C810.226 297.477 869.31 329.724 936.243 329.724L936.656 329.724C992.434 329.724 1007.31 309.171 1023.01 287.91C1032.1 275.507 1041.6 262.396 1059.78 252.474C1075.48 243.615 1096.55 241.135 1116.8 238.654C1140.76 235.819 1165.55 232.63 1182.49 219.165C1194.89 209.597 1205.63 198.258 1215.96 187.627C1235.38 167.783 1255.62 147.584 1284.55 135.182C1320.49 119.945 1358.92 118.882 1410.15 131.284C1428.74 135.891 1443.62 143.332 1457.66 150.774C1481.63 163.176 1504.35 174.87 1539.88 168.492C1558.89 164.948 1572.94 156.443 1586.57 148.293C1607.23 135.891 1626.65 123.843 1661.36 130.93C1685.32 135.891 1708.04 144.75 1730.36 153.254C1759.69 164.594 1789.85 176.287 1823.32 179.122C1838.61 180.185 1853.89 179.477 1869.18 178.768C1885.71 178.059 1902.23 176.996 1918.76 178.768L1918.76 175.933Z" fill="white" fill-opacity="0.1"/>
</g>
<g opacity="0.7">
<path opacity="0.7" d="M1918.76 208.534C1901.82 206.053 1884.47 205.345 1867.53 204.99C1852.24 204.636 1838.19 204.282 1824.14 202.51C1793.98 198.612 1767.54 186.918 1739.44 174.515C1717.13 164.593 1693.58 154.317 1668.38 148.293C1631.61 139.788 1609.3 151.837 1585.75 164.948C1572.94 172.035 1559.3 179.476 1543.19 183.374C1536.58 184.792 1530.38 185.855 1525.01 186.209C1503.94 187.981 1489.06 181.957 1472.12 174.87C1468.41 173.452 1464.69 171.681 1460.56 170.263C1450.23 166.365 1437.42 161.759 1422.13 159.278C1391.56 153.608 1367.18 151.837 1345.69 154.671C1327.93 156.798 1311.81 161.759 1296.11 169.554C1283.72 175.933 1272.56 184.083 1260.58 195.423C1253.14 202.51 1246.12 209.951 1239.51 217.393C1226.7 231.213 1213.48 245.387 1197.37 256.726C1179.19 269.483 1153.57 270.901 1129.19 272.318C1109.77 273.381 1091.59 274.444 1076.72 280.823C1058.95 288.264 1048.63 298.895 1039.12 309.171C1022.18 326.889 1006.48 343.544 953.183 345.67C947.812 346.024 942.44 346.024 937.069 346.024C875.094 345.316 820.555 318.739 775.52 292.871C769.735 289.682 763.951 286.138 757.754 282.594L748.664 277.279C707.76 253.537 661.072 226.252 603.228 217.747C552.408 210.306 521.42 229.795 488.367 250.702C473.08 260.27 456.966 270.546 438.786 277.279C376.811 301.021 285.914 308.463 205.759 314.841C172.292 317.676 140.478 320.156 112.382 323.7C79.3288 327.952 38.0118 332.913 10.7426 351.694C9.08991 352.757 7.85041 353.82 6.19773 354.883C4.54505 356.301 2.89237 357.718 1.23969 359.136L1.23969 362.325C3.30554 360.199 5.78456 358.073 8.26358 355.946C9.50308 354.883 11.1558 353.82 12.8084 352.757C39.6645 334.685 80.1551 329.37 112.796 325.472C140.891 321.928 172.705 319.448 206.172 316.613C286.74 310.234 377.637 302.793 440.439 279.051C459.032 271.964 475.145 261.687 490.433 252.12C522.66 231.921 553.648 212.432 602.815 219.873C659.832 228.378 706.107 255.309 747.011 279.051L756.101 284.366C761.885 287.91 767.67 291.099 773.867 294.643C819.316 320.511 874.267 347.442 937.069 348.151C942.44 348.151 948.225 348.151 953.596 347.796C1008.13 345.67 1025.07 327.598 1041.6 310.589C1051.1 300.667 1061.02 290.036 1078.37 282.949C1092.42 276.925 1110.6 275.862 1129.61 274.799C1154.81 273.381 1180.84 271.964 1199.43 258.498C1215.55 246.804 1228.77 232.63 1241.58 218.81C1248.19 211.369 1255.62 203.927 1262.65 196.84C1274.63 185.501 1285.78 177.705 1297.77 171.326C1313.05 163.53 1328.75 158.924 1346.52 156.798C1367.59 154.317 1391.56 155.735 1421.72 161.404C1436.59 164.239 1448.99 168.491 1459.32 172.389C1463.45 173.807 1467.17 175.579 1470.88 176.996C1488.24 184.083 1503.52 190.107 1525.84 188.335C1531.62 187.981 1537.82 186.918 1544.84 185.146C1561.37 181.248 1575 173.807 1588.22 166.72C1610.95 153.963 1632.43 142.269 1667.97 150.419C1693.17 156.089 1716.31 166.365 1738.62 176.287C1765.47 188.335 1793.57 200.384 1824.14 204.636C1838.61 206.408 1853.48 206.762 1867.94 207.116C1884.88 207.471 1902.23 207.825 1919.17 210.66L1919.17 208.534L1918.76 208.534Z" fill="white" fill-opacity="0.1"/>
</g>
<g opacity="0.7">
<path opacity="0.7" d="M1918.76 241.135C1901.82 237.591 1884.47 235.819 1867.53 234.048C1852.24 232.276 1837.78 230.858 1824.56 228.378C1796.88 223.062 1772.91 211.014 1747.3 198.257C1724.57 186.918 1701.02 175.224 1674.58 168.137C1636.15 158.215 1611.36 170.618 1585.33 184.083C1573.35 190.107 1560.96 196.486 1546.91 200.384C1539.88 202.51 1534.51 203.573 1529.55 204.636C1510.14 208.179 1498.15 204.636 1482.45 200.384C1478.74 199.321 1475.02 198.257 1470.88 197.194C1460.14 194.36 1447.75 191.525 1432.87 189.399C1408.91 186.209 1381.23 183.729 1356.02 187.981C1339.08 190.816 1323.38 196.84 1308.51 205.699C1297.35 212.432 1287.02 221.291 1275.87 233.339C1270.91 238.654 1266.37 243.97 1261.82 249.639C1247.77 266.294 1233.31 283.303 1213.48 295.706C1192.82 308.463 1165.97 308.108 1140.35 307.754C1123.41 307.399 1107.71 307.045 1094.9 310.589C1077.13 315.55 1066.8 323.346 1055.65 331.85C1037.88 345.316 1019.7 359.136 968.47 363.388C963.099 363.742 957.728 364.097 952.357 364.451C887.902 367.64 832.537 344.253 786.676 320.865C779.238 316.967 771.801 313.069 764.364 309.171L754.448 303.856C710.239 280.468 664.377 256.018 608.599 248.576C560.258 242.198 530.097 259.916 497.87 278.697C482.996 287.555 467.295 296.414 449.942 302.793C388.38 325.117 300.375 332.205 222.285 338.229C192.124 340.709 163.615 342.835 137.586 345.67C105.772 349.214 66.5205 354.175 40.0776 370.475C38.4249 371.538 37.1854 372.247 35.5327 373.31C18.5927 385.004 9.08984 400.595 0.413274 415.478L0.413274 420.794C0.413274 420.439 0.826444 420.085 0.826444 420.085C9.91618 404.139 19.4191 387.484 37.1854 374.727C38.4249 373.664 40.0776 372.956 41.3171 371.893C67.3468 355.946 106.185 351.34 137.586 347.796C163.615 344.961 192.124 342.481 222.285 340.355C300.375 334.331 389.206 327.243 450.768 304.565C468.535 298.186 484.235 288.973 499.109 280.114C530.923 261.687 560.672 244.324 607.36 250.348C662.311 257.789 708.173 281.886 751.969 305.273L761.885 310.589C769.736 314.841 776.759 318.385 784.196 322.282C830.472 345.67 886.249 369.412 951.53 366.223C957.315 365.868 962.686 365.514 968.057 365.16C1020.53 360.907 1039.95 346.024 1056.89 333.268C1067.63 325.117 1077.96 317.321 1094.9 312.715C1107.3 309.171 1123 309.526 1139.52 309.88C1164.73 310.234 1193.23 310.943 1214.72 297.477C1234.55 284.721 1249.43 267.711 1263.47 251.057C1268.43 245.387 1272.98 240.072 1277.52 234.756C1288.26 222.708 1298.59 214.204 1309.34 207.471C1323.8 198.612 1339.08 192.942 1355.61 190.107C1380.4 185.855 1407.67 188.335 1431.22 191.525C1446.09 193.296 1458.49 196.486 1468.82 198.966C1472.95 200.029 1476.67 201.092 1480.39 202.155C1495.67 206.408 1508.9 210.306 1529.14 206.762C1534.1 206.053 1539.88 204.636 1546.91 202.51C1560.96 198.612 1573.76 192.233 1585.75 185.855C1611.36 172.744 1635.33 160.696 1672.51 170.263C1698.54 176.996 1722.09 188.69 1744.82 200.029C1770.43 212.786 1794.81 225.189 1822.91 230.504C1836.54 233.339 1851 234.756 1866.29 236.174C1883.23 237.945 1900.58 239.717 1917.93 243.261L1917.93 241.135L1918.76 241.135Z" fill="white" fill-opacity="0.1"/>
</g>
<g opacity="0.7">
<path opacity="0.7" d="M1918.76 274.09C1902.65 270.192 1886.95 267.003 1871.25 264.168C1854.72 260.979 1839.02 258.144 1824.97 254.246C1799.77 247.513 1777.87 235.111 1754.73 221.999C1731.6 209.243 1708.04 195.777 1680.36 187.627C1639.87 175.933 1610.54 190.107 1582.44 203.573C1572.11 208.534 1561.37 213.495 1550.21 217.393C1544.43 219.165 1538.64 221.291 1533.69 222.708C1515.51 228.024 1505.18 226.606 1490.3 224.48C1487.41 224.126 1484.11 223.771 1480.8 223.417C1478.32 223.063 1475.43 222.708 1472.54 222.354C1463.86 221.291 1453.95 220.228 1442.79 219.165C1416.76 217.038 1389.49 215.621 1365.53 220.936C1349 224.834 1334.13 231.213 1320.49 241.489C1307.68 250.702 1298.18 262.042 1291.16 270.901C1288.26 274.444 1285.79 277.988 1282.89 281.531C1268.02 301.021 1252.73 321.219 1229.59 334.331C1206.04 347.442 1176.29 344.253 1150.27 341.418C1136.63 340 1123.41 338.583 1113.08 339.646C1094.07 341.772 1082.92 347.796 1069.7 354.529C1051.93 363.742 1031.27 374.373 983.758 380.043C978.387 380.751 973.015 381.46 967.644 381.815C900.298 388.902 841.627 367.286 798.245 347.796C789.155 343.898 780.478 339.646 771.389 335.039L769.323 333.976C765.191 331.85 761.059 330.078 757.341 327.952C713.958 306.691 669.336 285.075 615.21 278.342C569.349 272.673 539.6 288.973 508.199 305.628C493.738 313.424 478.864 321.574 461.924 327.244C401.188 348.151 315.662 354.883 240.465 360.553C213.196 362.679 187.58 364.451 164.029 367.286C133.868 370.475 96.6824 374.373 70.6527 388.902C69 389.61 67.7605 390.674 66.521 391.382C48.3415 402.722 38.0123 417.605 28.0962 431.779C23.1382 438.866 18.1801 446.308 11.9826 453.04C8.67721 456.584 5.37185 460.127 1.65333 463.317L1.65333 466.506C6.19819 462.608 10.3299 458.356 14.0484 454.103C20.246 447.016 25.204 439.575 30.162 432.488C40.4913 417.605 50.4074 403.43 68.1737 392.445C69.4132 391.737 71.0658 390.673 72.3054 389.965C97.9219 376.145 134.694 372.247 164.442 369.058C187.993 366.577 213.609 364.451 240.879 362.325C316.489 356.655 402.428 349.922 463.577 329.015C480.517 323.346 495.391 315.195 510.265 307.045C541.253 290.39 570.175 274.799 614.797 280.114C668.096 286.492 710.653 307.4 755.688 329.37C759.82 331.496 763.952 333.268 767.67 335.394L769.736 336.457C779.239 341.064 787.915 345.316 797.005 349.214C840.801 369.058 900.298 390.673 968.471 383.586C973.842 382.878 979.213 382.523 984.997 381.815C1033.34 376.145 1054.82 364.805 1071.76 355.947C1084.57 349.214 1095.31 343.544 1113.91 341.418C1124.24 340.355 1137.04 341.772 1150.27 343.19C1177.12 346.024 1207.7 349.214 1231.66 335.748C1255.21 322.637 1270.91 302.084 1285.79 282.595C1288.68 279.051 1291.16 275.153 1294.05 271.964C1301.07 263.105 1310.16 252.12 1322.97 242.907C1336.6 232.985 1350.65 226.606 1366.77 223.063C1390.32 217.747 1417.17 219.165 1442.79 221.291C1453.95 221.999 1463.45 223.417 1472.12 224.48C1475.02 224.834 1477.91 225.189 1480.39 225.543C1483.69 225.897 1487 226.252 1489.89 226.606C1505.18 228.732 1515.92 230.15 1534.93 224.48C1539.88 223.063 1546.08 220.936 1551.45 219.165C1562.61 215.267 1573.35 210.306 1583.68 205.345C1612.6 191.525 1639.87 178.414 1679.12 189.753C1706.39 197.549 1729.94 211.014 1752.67 223.771C1776.22 236.882 1798.12 249.285 1823.73 256.018C1837.78 259.916 1853.89 262.751 1870.42 265.94C1886.12 268.775 1902.23 271.964 1918.76 275.862L1918.76 274.09Z" fill="white" fill-opacity="0.1"/>
</g>
<g opacity="0.7">
<path opacity="0.7" d="M1918.76 307.046C1910.08 304.565 1901.41 302.439 1892.73 299.958C1867.94 293.226 1844.39 286.847 1825.38 280.469C1802.66 272.673 1782.83 260.27 1762.17 246.805C1739.03 232.276 1715.07 217.039 1686.56 207.825C1642.76 194.006 1608.88 209.597 1576.24 224.835C1568.81 228.378 1561.37 231.922 1553.93 234.757C1550.21 236.174 1546.91 237.591 1544.02 239.009C1541.95 239.718 1540.3 240.781 1538.23 241.489C1518.81 249.64 1510.96 249.994 1492.37 250.348L1490.72 250.348C1483.69 250.703 1475.02 250.348 1465.1 249.994C1461.38 249.994 1457.25 249.64 1452.71 249.64L1451.88 249.64C1425.44 248.931 1398.17 248.222 1375.03 254.955C1358.92 259.562 1345.28 267.003 1332.47 277.988C1321.32 287.556 1313.47 298.541 1306.44 309.172L1303.14 314.487C1289.09 336.103 1272.98 360.553 1246.12 373.665C1219.26 387.13 1185.8 380.043 1158.94 374.728C1148.61 372.602 1139.11 370.475 1130.85 370.121C1108.12 368.704 1095.73 372.956 1076.72 379.334C1059.37 385.004 1037.88 392.446 999.045 398.47C993.673 399.178 988.302 400.241 982.931 400.95C928.393 410.163 874.681 402.368 809.4 376.499C799.897 372.602 790.394 368.349 778.825 363.388C772.214 360.553 765.604 357.364 759.406 354.529C714.784 334.331 673.054 315.55 620.168 309.88C576.785 305.274 547.863 319.448 517.289 334.685C503.241 341.418 488.78 348.505 473.079 353.821C412.343 373.31 328.883 379.689 254.926 385.004C231.788 386.776 209.477 388.548 188.819 390.319C158.657 393.154 124.364 396.343 99.1608 408.392C97.5081 409.1 96.2686 409.809 95.0291 410.518C76.8496 420.44 65.694 433.197 54.5384 445.599C49.5804 451.623 44.2092 457.647 38.0116 463.317C26.856 473.948 14.4609 482.452 5.8414e-06 489.185L5.89193e-06 491.666C15.2873 484.578 28.5087 475.719 40.4906 464.734C46.6882 459.065 52.0594 452.686 57.0174 447.017C68.173 434.26 78.9154 421.857 96.6817 412.644C97.9212 411.935 99.5739 411.226 100.813 410.518C125.604 398.824 159.484 395.635 189.232 392.8C209.89 390.674 231.788 389.256 254.926 387.485C328.883 381.815 412.757 375.791 473.906 355.947C490.019 350.631 504.48 343.544 518.528 336.811C548.69 321.928 577.198 307.754 619.342 312.361C671.401 318.031 713.131 336.812 757.34 356.656C763.951 359.49 770.562 362.68 777.172 365.514C788.328 370.475 797.831 374.728 807.747 378.626C873.854 404.848 927.979 412.644 983.344 403.431C988.715 402.368 994.087 401.659 999.458 400.95C1038.71 394.572 1060.19 387.485 1077.55 381.815C1096.14 375.436 1108.12 371.538 1130.43 372.956C1138.28 373.31 1147.79 375.436 1157.7 377.563C1184.97 383.232 1218.85 390.319 1246.95 376.145C1274.63 362.325 1290.74 337.875 1305.2 315.904L1308.51 310.589C1315.53 300.313 1323.38 289.328 1334.13 279.76C1346.93 268.775 1360.16 261.688 1375.86 257.081C1398.58 250.703 1425.85 251.411 1451.88 251.766L1452.71 251.766C1456.84 251.766 1460.97 252.12 1464.69 252.12C1474.6 252.474 1483.28 252.829 1490.3 252.474L1491.96 252.474C1510.55 251.766 1518.81 251.766 1539.06 243.261C1540.71 242.552 1542.78 241.844 1544.84 240.781C1547.73 239.363 1551.45 237.946 1554.76 236.528C1562.2 233.339 1570.05 229.796 1577.48 226.606C1609.71 211.723 1642.76 196.486 1684.91 209.597C1713.42 218.456 1736.97 233.694 1760.1 248.222C1781.18 261.688 1801.01 274.09 1824.14 282.241C1843.56 288.973 1867.11 295.352 1891.9 302.085C1900.99 304.565 1909.67 307.046 1918.76 309.526L1918.76 307.046Z" fill="white" fill-opacity="0.1"/>
</g>
<g opacity="0.7">
<path opacity="0.7" d="M1918.76 340.355L1918.35 340.355C1886.95 330.787 1852.65 318.385 1825.8 306.691C1805.55 297.832 1787.79 285.43 1769.19 271.964C1746.06 255.664 1722.09 238.655 1691.93 228.024C1642.76 211.015 1600.62 231.213 1563.43 249.285L1556.82 252.474C1551.04 255.309 1546.49 257.79 1541.95 260.27L1538.64 262.396C1522.94 271.255 1517.99 274.445 1500.63 277.634C1491.13 279.406 1477.91 280.114 1463.03 280.469L1455.6 280.823C1431.22 281.532 1406.02 282.24 1384.95 289.328C1369.25 294.643 1356.44 302.793 1344.45 315.196C1334.54 325.472 1327.51 337.52 1321.73 348.151C1308.92 371.184 1292.81 400.241 1261.82 413.707C1230.42 427.527 1193.23 415.124 1166.38 406.265C1160.18 404.139 1153.98 402.013 1149.03 400.95C1118.45 392.8 1103.58 396.343 1067.22 405.202C1053.58 408.392 1036.64 412.644 1014.33 416.896C1008.55 417.959 1003.18 419.022 998.219 420.44C941.614 433.197 886.663 428.59 820.555 405.202C810.639 401.659 800.723 397.761 788.741 393.154C779.652 389.611 770.975 385.713 762.298 382.169C718.502 363.743 677.185 346.733 625.952 341.772C585.049 337.875 556.54 350.631 526.792 363.743C513.57 369.767 499.522 375.791 484.648 380.397C423.086 398.824 340.452 404.848 267.734 409.809C249.142 411.226 231.788 412.289 214.848 413.707C186.34 416.187 153.699 419.022 129.322 428.59C128.083 429.299 126.43 429.653 125.191 430.362C107.011 438.512 94.616 449.497 83.0472 460.128C77.676 464.734 72.718 469.695 66.5205 473.948C49.9937 487.059 30.5747 496.272 7.02399 502.651C4.95814 503.359 2.47912 503.714 0.413275 504.422L0.413275 506.548C2.89229 505.84 5.37131 505.485 7.85033 504.777C31.8142 498.044 51.6463 488.476 68.1731 475.365C73.9575 470.758 79.3287 465.797 84.6999 461.191C96.6819 450.206 108.251 439.929 126.43 432.133C127.67 431.425 128.909 431.07 130.562 430.362C154.526 420.794 185.1 418.314 214.848 415.833C231.788 414.416 249.142 412.998 267.734 411.935C340.865 406.62 423.912 400.95 485.475 382.169C500.762 377.562 514.81 371.538 528.031 365.514C557.366 352.403 585.462 340.001 625.539 343.899C676.359 348.505 717.676 365.869 761.059 383.941C769.736 387.484 778.825 391.382 787.502 394.926C799.484 399.533 809.4 403.431 819.316 406.974C885.836 430.362 941.201 434.968 999.045 422.211C1004.42 421.148 1009.37 420.085 1015.16 418.668C1037.47 414.061 1054.41 410.163 1068.04 406.974C1104.4 398.115 1118.04 394.926 1147.79 402.722C1152.74 404.139 1158.53 405.911 1165.14 408.037C1192.82 417.25 1230.42 429.653 1263.47 415.124C1295.29 401.304 1311.4 371.893 1324.21 348.505C1329.99 338.229 1337.02 326.181 1346.52 315.904C1358.09 303.856 1370.48 295.706 1385.77 290.745C1406.43 283.658 1431.22 283.304 1455.6 282.595L1463.03 282.24C1477.91 281.886 1491.13 281.177 1501.05 279.406C1518.81 276.216 1524.6 272.673 1540.3 263.814L1543.6 261.688C1547.73 259.207 1552.69 256.372 1558.06 253.892L1564.67 250.703C1601.03 232.985 1642.35 213.141 1690.28 229.796C1720.03 240.072 1743.58 257.081 1766.71 273.382C1785.72 286.847 1803.49 299.604 1823.73 308.463C1850.59 320.157 1885.29 332.914 1916.7 342.127C1917.11 342.127 1917.52 342.481 1918.35 342.481L1918.35 340.355L1918.76 340.355Z" fill="white" fill-opacity="0.1"/>
</g>
<g opacity="0.7">
<path opacity="0.7" d="M1918.76 373.664C1917.93 373.31 1917.11 372.956 1916.28 372.956C1889.84 364.097 1859.26 350.631 1825.8 332.559C1808.03 322.991 1792.33 310.589 1776.22 297.477C1753.08 279.051 1729.12 259.916 1697.71 248.222C1645.24 228.378 1594.01 251.057 1560.13 269.838C1555.17 272.318 1550.63 275.507 1546.08 279.051C1540.71 283.303 1536.58 286.847 1533.27 290.036C1526.66 296.06 1521.7 300.667 1510.14 304.919C1500.22 308.463 1486.17 309.88 1472.95 310.943C1468.82 311.297 1464.69 311.652 1460.56 312.006C1437.42 313.778 1413.45 315.55 1394.03 322.991C1378.75 329.015 1366.77 338.229 1356.02 351.694C1347.76 361.97 1342.39 373.664 1336.6 386.421C1324.21 414.061 1308.1 441.347 1277.52 453.04C1239.92 467.569 1197.78 446.662 1172.58 434.259C1170.51 433.196 1168.03 432.133 1166.38 431.07C1125.47 411.226 1108.95 415.124 1029.21 434.614C1023.83 436.031 1018.46 437.449 1013.09 438.866C954.422 455.521 898.231 453.749 831.711 433.196C820.142 429.653 808.573 425.4 798.657 421.857C787.502 417.605 776.346 413.352 765.604 409.1C722.634 392.445 681.73 376.499 631.323 372.247C592.899 369.058 565.216 380.043 535.881 391.382C523.073 396.343 509.852 401.659 495.804 405.556C431.762 422.92 348.302 428.59 274.758 433.551C262.776 434.259 251.207 434.968 240.052 436.031L238.812 436.031C210.717 438.157 182.208 439.929 158.657 447.725C157.418 448.079 155.765 448.788 154.526 449.142C135.933 455.875 123.125 464.38 109.903 473.239C104.945 476.782 99.5739 479.971 94.2027 483.515C77.2628 493.791 58.257 501.587 35.5326 506.903C24.377 509.383 12.3951 511.509 5.55699e-06 513.281L5.60031e-06 515.407C12.3951 513.635 24.7902 511.509 36.3589 508.674C59.4965 503.359 78.9154 495.563 95.8554 484.932C101.64 481.389 106.598 478.2 111.556 474.656C124.777 465.797 137.172 457.293 155.765 450.914C157.005 450.56 158.244 449.851 159.897 449.497C182.621 442.055 211.543 439.929 239.225 438.157L240.465 438.157C251.62 437.449 263.189 436.74 275.171 435.677C349.128 430.716 432.589 425.4 497.043 407.683C511.504 403.785 524.726 398.469 537.534 393.508C566.456 382.169 593.725 371.538 631.323 374.373C681.317 378.271 721.808 394.217 764.777 410.872C775.52 415.124 786.675 419.376 797.831 423.629C807.747 427.172 819.316 431.424 830.885 434.968C898.231 455.521 954.835 457.293 1014.33 440.638C1019.7 439.22 1025.07 437.803 1030.45 436.386C1108.95 417.25 1125.06 413.352 1165.14 432.488C1167.2 433.551 1169.27 434.614 1171.34 435.677C1196.95 448.434 1240.34 469.695 1279.17 454.458C1310.57 442.41 1326.69 414.77 1339.5 386.421C1345.28 373.664 1350.65 362.325 1358.92 352.048C1369.24 338.937 1381.23 330.078 1395.69 324.054C1414.69 316.613 1438.24 314.841 1460.97 313.069C1465.1 312.715 1469.23 312.36 1473.36 312.006C1487 310.943 1501.46 309.171 1511.79 305.628C1523.77 301.375 1529.14 296.769 1535.75 290.39C1539.06 287.201 1542.78 283.658 1548.15 279.76C1552.69 276.216 1557.24 273.381 1561.78 270.901C1594.84 252.474 1645.24 230.15 1696.48 249.285C1727.46 260.979 1751.01 279.76 1774.15 298.186C1790.68 311.297 1806.38 324.054 1824.14 333.622C1857.61 351.694 1888.19 365.16 1915.04 374.019C1916.28 374.373 1917.52 374.727 1918.76 375.082L1918.76 373.664Z" fill="white" fill-opacity="0.1"/>
</g>
<g opacity="0.7">
<path opacity="0.7" d="M1918.76 406.974C1917.11 406.619 1915.87 405.911 1914.22 405.556C1881.58 393.863 1850.17 374.373 1826.21 358.781C1810.92 348.859 1797.7 336.457 1783.24 323.7C1760.1 302.793 1736.55 281.531 1703.5 268.066C1653.92 247.867 1598.55 264.876 1563.43 287.201C1558.48 290.39 1554.34 293.579 1550.21 297.832C1544.43 303.856 1540.71 309.171 1537.82 313.778C1533.69 320.511 1529.97 326.535 1520.05 331.85C1510.14 337.165 1495.67 339.646 1482.87 341.418C1477.5 342.126 1472.12 342.835 1466.34 343.544C1444.44 346.024 1421.3 348.859 1403.54 357.009C1388.66 363.742 1377.09 373.664 1368.01 388.193C1360.98 399.532 1356.44 411.935 1351.89 423.983L1351.89 424.337C1343.63 447.725 1328.34 480.68 1293.63 492.374C1263.06 502.65 1227.11 492.728 1184.14 461.545C1144.07 432.487 1120.52 431.07 1044.49 452.686C1039.12 454.103 1033.75 455.875 1028.38 457.647C967.644 478.2 910.626 479.617 842.866 461.545C832.95 459.064 822.208 455.521 808.573 451.268C795.352 447.016 782.13 442.055 769.735 437.449C727.179 421.857 687.101 407.328 637.108 404.139C600.749 401.658 573.48 410.872 544.971 420.794C532.989 425.046 520.594 428.944 507.373 432.487C437.134 449.851 344.584 455.166 270.213 459.419L261.537 459.773C236.333 461.19 210.303 462.608 188.405 467.923C187.166 468.278 185.926 468.632 184.274 468.986C164.855 474.302 150.394 481.034 135.52 487.767C130.975 489.893 126.43 492.02 121.885 494.146C104.945 501.587 85.9393 507.611 64.0413 511.864C48.754 514.698 31.8141 517.179 15.7005 519.305C10.3293 520.014 5.37121 520.722 5.34561e-06 521.431L5.38893e-06 523.557C5.37121 522.849 10.7424 522.14 16.1136 521.431C32.6404 519.305 49.5804 516.825 64.8677 513.99C87.1788 509.737 106.185 503.713 123.538 495.917C128.083 493.791 132.628 491.665 137.172 489.539C152.046 482.452 166.094 476.073 185.513 470.758C186.753 470.404 187.992 470.049 189.232 469.695C210.717 464.38 236.746 462.962 261.537 461.545L270.213 461.19C344.584 456.938 437.134 451.623 507.786 434.259C521.007 431.07 533.402 426.818 545.797 422.565C574.306 412.998 600.749 403.785 636.695 406.265C686.275 409.454 725.939 423.983 768.496 439.575C781.304 444.181 794.112 449.142 807.747 453.395C821.382 458.001 832.124 461.19 842.04 463.671C910.213 481.743 968.057 480.68 1029.62 459.773C1034.99 458.001 1040.36 456.229 1045.73 454.812C1125.06 432.133 1144.89 436.031 1182.49 463.317C1226.29 495.209 1263.06 505.485 1294.87 494.854C1330.41 482.806 1345.69 449.497 1354.37 425.755L1354.37 425.4C1358.5 413.352 1363.05 400.95 1370.48 389.61C1379.57 375.436 1390.73 365.868 1405.19 359.136C1422.96 351.34 1445.27 348.505 1467.17 346.024C1472.54 345.316 1478.32 344.607 1483.69 343.898C1496.91 342.126 1511.79 339.646 1522.12 333.976C1532.45 328.306 1536.17 322.282 1540.71 315.195C1543.6 310.589 1546.91 305.273 1552.69 299.604C1556.41 295.706 1560.54 292.516 1565.5 289.327C1599.79 267.357 1653.92 250.702 1702.26 270.546C1734.9 283.657 1758.45 304.919 1781.18 325.826C1795.64 338.583 1808.86 350.985 1824.56 361.262C1848.52 377.208 1880.34 396.697 1912.98 408.391C1915.04 409.1 1916.69 409.809 1918.76 410.517L1918.76 406.974Z" fill="white" fill-opacity="0.1"/>
</g>
<g opacity="0.7">
<path opacity="0.7" d="M1918.76 440.283C1916.69 439.575 1914.22 438.866 1912.15 437.803C1879.92 425.4 1849.35 402.722 1826.62 384.649C1813.82 374.373 1802.66 362.679 1790.26 350.631C1767.54 327.244 1743.99 303.147 1709.28 287.91C1660.12 266.294 1600.62 279.76 1566.74 304.565C1562.2 308.108 1558.06 312.006 1554.76 316.258C1549.39 323.346 1546.91 330.078 1544.84 336.457C1541.95 344.961 1539.47 352.048 1530.38 358.781C1522.94 364.451 1511.79 368.349 1493.2 371.893C1487 372.956 1480.39 374.019 1473.78 375.082C1452.29 378.271 1430.39 381.814 1413.45 390.673C1398.99 398.115 1388.25 409.1 1379.99 424.692C1374.2 436.031 1370.9 448.434 1367.59 460.127L1366.77 462.608C1356.44 500.17 1337.43 523.203 1309.34 531.708C1260.58 546.236 1214.72 504.776 1201.91 491.665C1165.97 455.521 1138.28 444.536 1059.78 470.404C1054.41 472.176 1049.04 474.302 1043.67 476.428C980.039 501.587 923.435 505.485 854.435 489.893C844.106 487.413 832.537 484.224 818.903 480.326C803.615 475.719 788.741 470.758 774.28 465.797C732.137 451.269 692.059 437.803 642.892 435.322C608.599 433.551 580.504 441.346 553.648 449.142C542.492 452.332 530.923 455.521 518.941 458.001C444.571 473.947 353.673 479.263 291.698 482.098L282.608 482.452C260.71 483.161 238.399 484.224 218.567 487.413C217.327 487.767 216.088 487.767 214.848 488.122C192.537 492.02 175.184 496.981 157.005 502.296L150.394 504.068C133.867 509.029 114.861 512.927 92.9632 516.116C84.6998 517.533 76.4364 518.596 67.3467 519.659C44.6223 522.849 21.4848 526.038 5.1732e-06 530.999L5.21652e-06 533.125C21.4848 528.164 44.6223 524.975 67.7599 521.786C76.8496 520.722 85.113 519.305 93.3764 518.242C115.274 515.053 134.28 510.801 151.22 506.194L157.831 504.422C176.837 498.752 193.363 494.146 215.261 490.248C216.501 489.893 217.74 489.893 218.98 489.539C238.399 486.35 260.71 485.641 282.608 484.932L291.698 484.578C354.087 482.098 445.397 476.782 519.768 460.482C531.75 458.001 543.318 454.458 554.474 451.268C582.569 443.473 609.012 436.031 642.479 437.449C691.233 439.929 730.897 453.395 773.041 467.923C787.502 472.884 802.376 477.845 817.663 482.806C830.885 486.704 842.866 489.893 853.196 492.374C923.435 508.32 980.452 504.422 1044.91 478.908C1050.28 476.782 1055.65 474.656 1061.02 473.239C1136.63 448.079 1163.07 456.938 1199.85 493.791C1213.07 507.257 1260.17 549.425 1310.99 534.542C1339.5 526.038 1359.33 502.296 1370.07 464.025L1370.9 461.545C1374.2 449.851 1377.51 437.449 1382.88 426.463C1390.73 411.226 1401.06 400.595 1415.11 393.508C1431.63 385.004 1453.53 381.46 1474.6 378.271C1481.21 377.208 1487.82 376.145 1494.02 375.082C1513.03 371.538 1524.18 367.64 1532.45 361.616C1541.95 354.529 1544.43 346.733 1547.32 338.583C1549.39 332.204 1551.87 325.826 1557.24 318.739C1560.54 314.487 1564.26 310.943 1568.81 307.399C1601.03 284.012 1660.53 270.192 1707.63 291.099C1741.92 306.336 1765.06 330.078 1787.79 353.112C1799.77 365.514 1811.34 377.208 1824.14 387.484C1847.28 405.911 1877.86 428.944 1910.5 441.347C1913.39 442.41 1915.87 443.118 1918.35 444.181L1918.35 440.283L1918.76 440.283Z" fill="white" fill-opacity="0.1"/>
</g>
<g opacity="0.7">
<path opacity="0.7" d="M1918.76 473.593C1915.87 472.53 1912.98 471.821 1910.08 470.404C1885.29 460.482 1857.2 440.283 1827.04 410.517C1816.71 400.595 1807.62 389.61 1797.7 378.271C1775.39 352.048 1751.84 325.117 1715.48 307.754C1666.73 284.366 1601.03 296.06 1570.46 321.574C1565.91 325.472 1562.2 329.724 1559.3 334.685C1554.35 342.835 1553.11 350.631 1552.28 358.427C1550.63 367.994 1549.39 377.208 1541.12 385.358C1533.69 392.445 1522.53 397.406 1503.94 401.658C1496.91 403.43 1489.48 404.848 1482.04 406.265C1461.38 410.163 1439.9 414.415 1423.78 423.629C1409.32 431.779 1399.41 443.473 1392.8 460.482C1388.25 471.821 1386.19 483.869 1384.12 495.563L1383.29 500.524C1378.33 527.101 1364.29 561.119 1326.69 570.687C1284.13 581.672 1242.82 550.843 1220.92 521.431C1187.45 477.137 1154.4 458.356 1076.31 488.122C1070.94 490.248 1065.57 492.374 1060.19 494.854C994.913 524.62 937.069 531.353 866.831 517.533C855.675 515.407 843.693 512.572 830.058 509.029C812.705 504.422 796.179 499.107 780.065 493.791C737.922 480.326 698.67 467.569 649.503 465.797C616.863 464.734 588.767 471.112 561.911 477.137C551.995 479.263 541.666 481.743 531.337 483.515C468.122 495.209 392.512 502.65 318.141 504.422C311.53 504.422 304.92 504.776 297.896 504.776C281.369 505.131 264.429 505.485 249.142 506.194L245.423 506.548C222.286 508.32 202.453 510.446 179.316 513.635C161.137 516.116 142.131 518.242 122.712 520.014C77.6762 524.62 31.4012 530.644 0.826604 548.362L0.826604 550.843C30.5748 532.416 77.263 526.392 122.712 521.785C142.131 519.659 161.55 517.888 179.316 515.407C202.453 512.218 221.872 510.092 245.423 508.32L249.142 507.966C264.842 506.903 281.369 506.548 297.896 506.548C304.506 506.548 311.53 506.194 318.141 506.194C392.925 504.422 468.948 496.981 532.163 485.287C542.492 483.515 552.822 481.034 562.738 478.908C590.833 472.53 617.276 466.86 649.503 467.923C698.257 469.695 737.508 482.098 779.239 495.563C795.352 500.878 811.879 506.194 829.232 510.8C842.867 514.344 854.849 517.179 866.004 519.659C937.069 533.479 995.74 526.747 1061.85 496.626C1067.22 494.146 1072.59 492.019 1077.96 489.893C1154.4 461.19 1186.21 479.263 1218.85 522.494C1241.58 552.615 1283.72 583.798 1328.34 572.459C1367.18 562.537 1381.23 528.164 1386.6 500.878L1387.42 495.917C1389.49 484.224 1391.97 472.176 1396.1 461.19C1402.71 444.89 1412.21 433.551 1426.26 425.4C1441.96 416.187 1463.03 412.289 1483.69 408.391C1491.13 406.974 1498.57 405.556 1505.59 403.785C1518.4 400.95 1534.1 395.989 1544.02 386.775C1552.69 378.271 1554.35 368.703 1556 358.781C1557.24 351.34 1558.48 343.544 1563.02 335.394C1565.5 330.787 1569.22 326.535 1573.76 322.991C1603.51 298.186 1667.55 286.847 1715.07 309.526C1751.01 326.535 1774.15 353.466 1796.46 379.688C1805.97 390.673 1815.47 402.013 1825.8 411.935C1856.37 441.701 1884.47 462.253 1909.67 472.175C1912.98 473.593 1916.28 474.656 1919.59 475.719L1919.59 473.593L1918.76 473.593Z" fill="white" fill-opacity="0.1"/>
</g>
</svg>
