<svg width="398" height="116" viewBox="0 0 398 116" fill="none" xmlns="http://www.w3.org/2000/svg">
<path fill-rule="evenodd" clip-rule="evenodd" d="M86.133 7.23407L117.614 59.3095L137.584 47.4521C141.259 45.2332 146.044 46.4813 148.263 50.1564C150.482 53.8315 149.234 58.6161 145.559 60.835L112.344 80.5973L80.7244 28.3832L52.3638 44.6784C48.6193 46.828 43.9041 45.5105 41.7545 41.8354C39.6049 38.091 40.9224 33.3758 44.5975 31.2262L86.133 7.23407Z" fill="#F35E3E"/>
<path d="M137.168 33.9306C135.504 40.6567 128.709 44.8172 121.983 43.153C115.256 41.4888 111.096 34.6933 112.76 27.9672C114.424 21.2411 121.22 17.0806 127.946 18.7448C134.672 20.409 138.832 27.2044 137.168 33.9306Z" fill="#F35E3E"/>
<path fill-rule="evenodd" clip-rule="evenodd" d="M76.4252 43.4996L101.596 85.1045L61.5168 109.374C57.8417 111.593 53.0572 110.414 50.8382 106.739C48.6193 103.064 49.7981 98.2793 53.4732 96.0604L80.239 79.8345L71.1553 64.8568L11.799 100.706C8.12392 102.925 3.33937 101.746 1.12044 98.0713C-1.09848 94.3962 0.0803168 89.6117 3.75541 87.3927L76.4252 43.4996Z" fill="#F35E3E"/>
<path d="M243.399 39.2005C242.221 46.0653 239.516 52.3754 235.356 58.0613C231.265 63.678 225.717 68.1852 218.783 71.5829C211.78 74.9113 203.667 76.5755 194.444 76.5755H178.842L172.047 114.921H140.289L160.398 1.34006H207.619C219.546 1.34006 228.63 4.04439 234.87 9.52236C241.111 14.8616 244.231 22.1425 244.231 31.2956C244.162 33.5145 243.885 36.1495 243.399 39.2005ZM195.831 51.5432C204.776 51.5432 209.907 47.3828 211.294 39.1311C211.502 37.6056 211.641 36.5655 211.641 35.9414C211.641 33.0291 210.67 30.8102 208.729 29.146C206.926 27.4124 204.083 26.5803 200.2 26.5803H187.649L183.28 51.5432H195.831Z" fill="white"/>
<path d="M247.282 44.5397C253.662 22.9052 243.954 9.86903 238.268 6.05526L238.961 1.54807H315.584L311.077 26.1643H266.005L262.191 46.62H295.821L291.314 70.5428H258.377L250.403 114.921H218.506L226.133 73.1777C233.553 68.8092 242.775 60.0029 247.282 44.5397Z" fill="white"/>
<path d="M288.887 41.7661C288.887 39.8245 292.562 33.7918 294.435 31.0182H314.89L319.398 7.78881L327.718 3.97503C344.915 -3.23648 364.677 0.993347 372.444 3.97503C372.998 3.767 376.535 5.22317 385.965 12.9894C395.396 20.7556 397.753 36.0801 397.753 42.8062H363.776C363.776 41.9741 362.181 38.7844 361.349 37.2589C359.754 33.9305 353.028 27.7591 339.16 29.9781C325.292 32.197 318.427 47.7988 316.693 55.2877C314.682 65.7582 315.098 74.5646 319.744 79.5572C334.167 95.0896 351.849 82.1228 358.922 73.6631H392.553L388.392 82.3308C382.013 93.9802 360.933 117.071 327.372 115.961C293.811 114.852 284.033 88.7102 283.34 75.7434H295.475L301.715 41.7661H288.887Z" fill="white"/>
</svg>
